<?xml version='1.0' encoding='utf-8'?>
<svg xmlns:xlink="http://www.w3.org/1999/xlink" xmlns="http://www.w3.org/2000/svg" clip-rule="evenodd" fill-rule="evenodd" image-rendering="optimizeQuality" shape-rendering="geometricPrecision" text-rendering="geometricPrecision" viewBox="0 0 605 284"> <defs> <style type="text/css">.fil1 {fill:url(#b);fill-rule:nonzero} .fil0 {fill:url(#d);fill-rule:nonzero} .fil3 {fill:url(#a);fill-rule:nonzero} .fil2 {fill:url(#c);fill-rule:nonzero}</style> <linearGradient id="b" x1="266.68" x2="234.13" y1="268.92" y2="147.44" gradientUnits="userSpaceOnUse"> <stop stop-color="#450445" offset="0"/> <stop stop-color="#606" offset=".078431"/> <stop stop-color="#f06" offset=".18039"/> <stop stop-color="#fc0" offset=".72941"/> <stop stop-color="#450445" offset="1"/> </linearGradient> <linearGradient id="d" x1="338.11" x2="370.48" y1="15.041" y2="135.82" gradientUnits="userSpaceOnUse" xlink:href="#b"/> <linearGradient id="a" x1="116.39" x2="283.35" y1="138.76" y2="68.52" gradientUnits="userSpaceOnUse"> <stop stop-color="#450445" offset="0"/> <stop stop-color="#8A0351" offset=".16863"/> <stop stop-color="#f06" offset=".41176"/> <stop stop-color="#fc0" offset="1"/> </linearGradient> <linearGradient id="c" x1="488.61" x2="321.65" y1="145.23" y2="215.48" gradientUnits="userSpaceOnUse" xlink:href="#a"/> </defs> <path class="fil0" d="m259.36 105.5c25.557-44.342 53.44-72.881 110.04-85.533 6.5847 4.5744 23.711 6.4713 29.558 11.313 21.27 17.608 37.779 36.91 50.268 57.194-27.977 9.9662-53.574 24.419-75.769 42.43-10.454-9.9803-22.375-17.808-35.719-23.107-10.587-4.2036-21.621-6.6319-32.946-7.4079-3.8291-0.47953-7.7197-0.59055-11.663-0.22795-11.074 0.32126-22.37 2.1307-33.774 5.3398z"/> <path class="fil1" d="m345.64 178.5c-25.557 44.343-53.442 72.882-110.05 85.534-6.5835-4.5744-23.711-6.4736-29.56-11.315-21.612-17.89-38.295-37.53-50.855-58.171 27.885-9.9248 53.408-24.306 75.554-42.224 10.645 10.349 22.836 18.442 36.523 23.877 10.587 4.2047 21.621 6.6343 32.943 7.4114 3.8303 0.47953 7.7209 0.58937 11.666 0.22677 11.072-0.32244 22.368-2.1295 33.774-5.3398z"/> <path class="fil2" d="m205.44 252.24c160.56-42.228 217.47-245.99 399.37-110.24-156.16 38.252-251.12 212.47-399.37 110.24z"/> <path class="fil3" d="m399.56 31.764c-160.56 42.228-217.48 245.99-399.37 110.24 156.16-38.254 251.12-212.47 399.37-110.24z"/> </svg>